<svg width="24" height="24" viewBox="0 0 24 24" fill="none" xmlns="http://www.w3.org/2000/svg">
<path d="M9 5.00024C10.0609 5.00024 11.0783 5.42167 11.8284 6.17182C12.5786 6.92196 13 7.93938 13 9.00024C13 10.0611 12.5786 11.0785 11.8284 11.8287C11.0783 12.5788 10.0609 13.0002 9 13.0002C7.93913 13.0002 6.92172 12.5788 6.17157 11.8287C5.42143 11.0785 5 10.0611 5 9.00024C5 7.93938 5.42143 6.92196 6.17157 6.17182C6.92172 5.42167 7.93913 5.00024 9 5.00024ZM9 15.0002C11.67 15.0002 17 16.3402 17 19.0002V21.0002H1V19.0002C1 16.3402 6.33 15.0002 9 15.0002ZM16.76 5.36024C18.78 7.56024 18.78 10.6102 16.76 12.6302L15.08 10.9402C15.92 9.76024 15.92 8.23024 15.08 7.05024L16.76 5.36024ZM20.07 2.00024C24 6.05024 23.97 12.1102 20.07 16.0002L18.44 14.3702C21.21 11.1902 21.21 6.65024 18.44 3.63024L20.07 2.00024Z" fill="black"/>
</svg>
